{"title":"Queen.Rock.Montreal.Live.Aid.1080p.BluRay.REMUX-CerealKiller","uid":6530416,"size":18701309024,"categoryP":"video","categoryS":"hd___movies","magnet":"?xt=urn:btih:4306de6cec34189c005323cb8d9a0a2c2db7fde4&amp;dn=Queen.Rock.Montreal.Live.Aid.1080p.BluRay.REMUX-CerealKiller&amp;tr=udp%3A%2F%2Ftracker.openbittorrent.com%3A80&amp;tr=udp%3A%2F%2Fopen.demonii.com%3A1337&amp;tr=udp%3A%2F%2Ftracker.coppersurfer.tk%3A6969&amp;tr=udp%3A%2F%2Fexodus.desync.com%3A6969","seeders":8,"leechers":3,"uploader":"insinuendo","files":7,"time":1310320184,"description":"Queen.Rock.Montreal.&amp;.Live.Aid.Bluray.1080p.VC-1.LCPM.Remux-CerealKiller\n\nThe only Queen concert ever filmed in its entirety, this 1981 Montreal Live Aid performance has been digitally restored and remixed. Featuring dynamic front man Freddie Mercury, the band puts on a high-octane show for a crowd of excited fans. Songs include &quot;We Will Rock You,&quot; &quot;We Are the Champions,&quot; &quot;Somebody to Love,&quot; &quot;Get Down Make Love,&quot; &quot;Under Pressure,&quot; &quot;Crazy Little Thing Called Love,&quot; &quot;Killer Queen,&quot; &quot;Bohemian Rhapsody&quot; and many more.\n\nList of songs\n\nWe Will Rock You (fast) (May)\nLet Me Entertain You (Mercury)\nPlay the Game (Mercury)\nSomebody to Love (Mercury)\nKiller Queen (Mercury)\nI'm in Love With My Car (Taylor)\nGet Down, Make Love (Mercury)\nSave Me (May)\nNow I'm Here (May)\nDragon Attack (May)\nNow I'm Here (reprise) (May)\nLove of My Life (Mercury)\nUnder Pressure (Queen/Bowie)\nKeep Yourself Alive (with impromptu jam before the song) (May)\nDrum Solo/Tympani Solo (Queen/Taylor)\nGuitar Solo/Guitar and Drum Duel (May)\nCrazy Little Thing Called Love (Mercury)\nJailhouse Rock (Lieber, Stoller)\nBohemian Rhapsody (Mercury)\nTie Your Mother Down (May)\nAnother One Bites the Dust (Deacon)\nSheer Heart Attack (Taylor)\nWe Will Rock You (May)\nWe Are the Champions (Mercury)\nGod Save the Queen (tape) (arr. May)\n\n &lt;a href=&quot; http://www.blu-ray.com/movies/Queen-Rock-Montreal-and-Live-Aid-Blu-ray/548/&quot; rel=&quot;nofollow&quot; target=&quot;_NEW&quot;&gt; http://www.blu-ray.com/movies/Queen-Rock-Montreal-and-Live-Aid-Blu-ray/548/&lt;/a&gt;\n\n\nVideo\nID : 1\nFormat : VC-1\nFormat profile : AP@L3\nCodec ID : WVC1\nCodec ID/Hint : Microsoft\nDuration : 1h 35mn\nWidth : 1 920 pixels\nHeight : 1 080 pixels\nDisplay aspect ratio : 16:9\nFrame rate : 23.976 fps\nChroma subsampling : 4:2:0\nBit depth : 8 bits\nScan type : Progressive\nCompression mode : Lossy\n\nAudio #1\nID : 2\nFormat : PCM\nCodec ID : A_PCM/INT/LIT\nDuration : 1h 35mn\nBit rate mode : Constant\nChannel(s) : 2 channels\nSampling rate : 48.0 KHz\nBit depth : 24 bits\n\nAudio #2\nID : 3\nFormat : DTS\nFormat/Info : Digital Theater Systems\nFormat profile : HRA / Core\nMuxing mode : Header stripping\nCodec ID : A_DTS\nDuration : 1h 35mn\nBit rate mode : Constant\nBit rate : 3 019 Kbps / 1 510 Kbps\nChannel(s) : 6 channels\nChannel positions : Front: L C R, Side: L R, LFE\nSampling rate : 96.0 KHz / 48.0 KHz\nBit depth : 24 bits\nCompression mode : Lossy\nStream size : 2.01 GiB (12%)\n\nAudio #3\nID : 4\nFormat : AC-3\nFormat/Info : Audio Coding 3\nMode extension : CM (complete main)\nMuxing mode : Header stripping\nCodec ID : A_AC3\nDuration : 1h 35mn\nBit rate mode : Constant\nBit rate : 192 Kbps\nChannel(s) : 2 channels\nChannel positions : Front: L R\nSampling rate : 48.0 KHz\nBit depth : 16 bits\nCompression mode : Lossy\nStream size : 131 MiB (1%)\n","torrent":{"xt":"urn:btih:4306de6cec34189c005323cb8d9a0a2c2db7fde4","amp;dn":"Queen.Rock.Montreal.Live.Aid.1080p.BluRay.REMUX-CerealKiller","amp;tr":["udp%3A%2F%2Ftracker.openbittorrent.com%3A80","udp%3A%2F%2Fopen.demonii.com%3A1337","udp%3A%2F%2Ftracker.coppersurfer.tk%3A6969","udp%3A%2F%2Fexodus.desync.com%3A6969"],"infoHash":"4306de6cec34189c005323cb8d9a0a2c2db7fde4","infoHashBuffer":{"type":"Buffer","data":[67,6,222,108,236,52,24,156,0,83,35,203,141,154,10,44,45,183,253,228]},"announce":[],"urlList":[]}}